<svg xmlns="http://www.w3.org/2000/svg" viewBox="0 -0.5 32 32" shape-rendering="crispEdges">
<metadata>Made with Pixels to Svg https://codepen.io/shshaw/pen/XbxvNj</metadata>
<path stroke="#45283c" d="M13 0h7M21 0h5M12 1h1M20 1h1M26 1h1M0 2h8M11 2h1M25 2h1M8 3h3M24 3h1M0 4h1M23 4h1M0 5h1M24 5h1M0 6h1M1 7h2M3 8h2M5 9h1M6 10h1M6 11h1M6 12h1M7 13h1M7 23h1M7 24h1M8 25h1" />
<path stroke="#d9a066" d="M13 1h2M21 1h5M12 2h1M21 2h4M0 3h8M11 3h2M1 4h11M1 5h1M8 5h3M1 6h2M9 6h2M3 7h2M5 8h1M6 9h1M7 10h1M9 10h1M7 11h3M7 12h2M8 13h1M8 23h1M8 24h1" />
<path stroke="#bebebe" d="M15 1h5M19 2h2M20 3h2M20 4h3M21 5h3M17 6h1M21 6h2M18 7h1M21 7h2M25 7h1M18 8h5M25 8h1M19 9h3M25 9h1M17 10h2M21 10h3M23 11h2M25 12h1M14 17h2M27 17h2M3 18h1M6 18h4M14 18h2M4 19h3M9 19h1M15 19h2M25 19h1M9 20h1M16 20h2M16 21h3M18 22h1M10 24h1M11 25h1M17 25h1M17 27h2M16 29h1M19 29h1" />
<path stroke="#ffffff" d="M13 2h6M13 3h7M12 4h8M11 5h10M11 6h3M15 6h2M18 6h3M10 7h3M15 7h3M19 7h2M10 8h2M14 8h1M16 8h2M10 9h2M17 9h2M10 10h3M16 10h1M19 10h2M10 11h13M9 12h16M9 13h16M26 13h1M8 14h16M6 15h18M5 16h20M4 17h10M16 17h1M24 17h3M4 18h2M10 18h4M16 18h8M10 19h5M18 19h7M10 20h6M9 21h7M9 22h9M9 23h10M11 24h8M12 25h5M18 25h1M17 26h2M17 28h2M17 29h2" />
<path stroke="#8f563b" d="M22 3h2M2 5h6M3 6h6M5 7h5M6 8h4M7 9h3M8 10h1" />
<path stroke="#000000" d="M14 6h1M23 6h2M13 7h2M23 7h2M12 8h1M15 8h1M23 8h2M12 9h5M22 9h3M13 10h3M24 10h1M26 12h2M25 13h1M28 13h1M24 14h2M28 14h1M24 15h6M25 16h4M9 24h1M9 25h2M9 26h4M9 27h1M11 27h1M9 28h1M10 29h2" />
<path stroke="#847e87" d="M13 8h1M27 13h1M26 14h2M10 27h1M10 28h2" />
<path stroke="#663931" d="M25 10h1M25 11h2" />
<path stroke="#444444" d="M6 14h2M5 15h1M4 16h1M3 17h1M2 18h1M3 19h1M7 19h2M4 20h3M8 20h1M8 21h1M19 21h5M8 22h1M19 22h5M19 23h5M19 24h1M21 24h2M19 25h1M13 26h4M19 26h1M16 27h1M19 27h1M16 28h1M19 28h1M15 29h1M20 29h1M16 30h4" />
<path stroke="#686868" d="M29 16h1M17 17h7M29 17h1M24 18h5M17 19h1M26 19h2M18 20h8" />
</svg>